<svg xmlns="http://www.w3.org/2000/svg" width="24" height="24" viewBox="0 0 6.35 6.35"><g transform="translate(-51.594 -358.384)"><path d="m 207.00391,257.99805 c -2.74958,0 -5.00585,2.25629 -5.00586,5.00586 v 4.99804 c 1e-5,2.74957 2.25628,4.9961 5.00586,4.9961 2.74957,0 4.99608,-2.24653 4.99609,-4.9961 v -4.99804 c -1e-5,-2.74957 -2.24652,-5.00586 -4.99609,-5.00586 z m 0,2.00195 C 208.6726,260 210,261.33521 210,263.00391 v 4.99804 c 0,1.6687 -1.3274,2.9961 -2.99609,2.9961 -1.6687,0 -3.00586,-1.3274 -3.00586,-2.9961 v -4.99804 c 0,-1.6687 1.33716,-3.00391 3.00586,-3.00391 z m -7.01368,4.98242 a 1.0001001,1.0001001 0 0 0 -0.10351,0.006 A 1.0001001,1.0001001 0 0 0 199.00195,266 v 2.99805 c 0,3.85413 3.14195,7.00586 6.9961,7.00586 h -2 a 1.0001001,1.0001001 0 0 0 -0.0957,0 1.0014021,1.0014021 0 0 0 0.0957,2 H 210 a 1.000252,1.000252 0 1 0 0,-2 h -2 c 3.85415,0 6.99805,-3.15173 6.99805,-7.00586 V 266 a 1.00098,1.00098 0 1 0 -2.00196,0 v 2.99805 c 0,2.77323 -2.22282,5.0039 -4.99609,5.0039 h -2.00195 c -2.77327,0 -4.9961,-2.23067 -4.9961,-5.0039 V 266 a 1.0001001,1.0001001 0 0 0 -1.01172,-1.01758 z" color="#000" font-family="sans-serif" font-weight="400" overflow="visible" paint-order="markers fill stroke" transform="translate(0 290.65) scale(.26458)" style="line-height:normal;font-variant-ligatures:normal;font-variant-position:normal;font-variant-caps:normal;font-variant-numeric:normal;font-variant-alternates:normal;font-feature-settings:normal;text-indent:0;text-align:start;text-decoration-line:none;text-decoration-style:solid;text-decoration-color:#000;text-transform:none;text-orientation:mixed;shape-padding:0;isolation:auto;mix-blend-mode:normal"/><path fill="none" stroke="#000" stroke-linecap="round" stroke-linejoin="round" stroke-width=".529" d="m 54.768751,363.93958 -1e-6,-0.52917"/></g></svg>